# xmcd
#
# Track frame offsets: 
#        150
#        15385
#        25531
#        42048
#        53430
#        65300
#        82757
#        94190
#        104499
#        117969
#        127376
#        139850
#        154229
#
# Disc length: 2247 seconds
#
# Revision: 0
# Processed by: cddbd v1.5.2PL0 Copyright (c) Steve Scherf et al.
# Submitted via: ExactAudioCopy v0.99pb5
#
DISCID=9d08c50d
DTITLE=The 24th Street Wailers - Wicked
DYEAR=2014
DGENRE=Blues
TTITLE0=Wicked
TTITLE1=Aim To Please
TTITLE2=Where You Been?
TTITLE3=Feel So Good
TTITLE4=Love Me Right
TTITLE5=I Need You
TTITLE6=Chin Wagger
TTITLE7=Solid Ground
TTITLE8=Aw Baby
TTITLE9=Boones' Bounce
TTITLE10=Help Each Other Romance
TTITLE11=The Road Song
TTITLE12=Shake It!
EXTD=
EXTT0=
EXTT1=
EXTT2=
EXTT3=
EXTT4=
EXTT5=
EXTT6=
EXTT7=
EXTT8=
EXTT9=
EXTT10=
EXTT11=
EXTT12=
PLAYORDER=
